<?xml version="1.0" standalone="no"?>
<!DOCTYPE svg PUBLIC "-//W3C//DTD SVG 20010904//EN"
 "http://www.w3.org/TR/2001/REC-SVG-20010904/DTD/svg10.dtd">
<svg version="1.0" xmlns="http://www.w3.org/2000/svg"
 width="150.000000pt" height="150.000000pt" viewBox="0 0 150.000000 150.000000"
 preserveAspectRatio="xMidYMid meet">

<g transform="translate(0.000000,150.000000) scale(0.100000,-0.100000)"
fill="#000000" stroke="none">
<path d="M208 1486 c-79 -28 -134 -74 -169 -139 l-34 -62 0 -535 0 -535 29
-58 c37 -72 77 -109 151 -136 54 -20 72 -21 565 -21 476 0 513 1 560 19 73 28
125 74 157 139 l28 57 3 514 c3 579 3 583 -67 662 -21 25 -63 58 -92 74 l-54
30 -520 2 c-414 2 -528 0 -557 -11z"/>
</g>
</svg>
